<svg version="1.1" id="Layer_1" xmlns="http://www.w3.org/2000/svg" xmlns:xlink="http://www.w3.org/1999/xlink" x="0px" y="0px"
	 width="100%" viewBox="0 0 251 201" enable-background="new 0 0 251 201" xml:space="preserve">
<path fill="#FDFDFD" opacity="1.000000" stroke="none" 
	d="
M175.000000,202.000000 
	C116.666672,202.000000 58.833340,202.000000 1.000008,202.000000 
	C1.000005,135.000000 1.000005,68.000015 1.000003,1.000017 
	C84.666656,1.000011 168.333313,1.000011 251.999969,1.000006 
	C251.999985,67.999985 251.999985,134.999969 252.000000,201.999969 
	C226.500000,202.000000 201.000000,202.000000 175.000000,202.000000 
M46.959248,62.920612 
	C47.004459,66.945244 47.049671,70.969872 46.912663,75.916664 
	C46.973389,82.612892 47.034111,89.309113 46.935680,96.775963 
	C46.935680,98.316559 46.935680,99.857162 46.935680,102.116493 
	C48.352234,101.211319 49.204052,100.667007 50.917980,100.101418 
	C102.364952,94.601372 153.788437,95.085876 205.547653,100.153122 
	C205.547653,79.090195 205.562149,57.471210 205.532120,35.852291 
	C205.527588,32.583817 203.755157,29.807938 200.603775,30.258446 
	C198.680847,30.533337 196.496384,33.246212 195.612701,35.358997 
	C194.673187,37.605263 195.131287,40.436100 194.970779,43.152458 
	C156.691315,43.152458 118.873589,43.141102 81.055893,43.163120 
	C74.399338,43.166992 67.742867,43.310509 60.606979,43.226574 
	C60.447159,43.280819 60.287342,43.335064 59.411594,43.174240 
	C58.723217,42.336506 57.636047,41.584812 57.432709,40.642422 
	C57.054813,38.891006 57.774654,36.698071 56.976421,35.290813 
	C55.828709,33.267437 53.903873,30.614750 52.001228,30.334879 
	C48.977146,29.890049 46.973396,32.348572 46.984455,35.723705 
	C47.013153,44.484577 47.068825,53.245365 46.959248,62.920612 
M216.522568,166.013260 
	C216.823700,169.441299 217.126480,173.147095 221.778595,172.958984 
	C226.437561,172.770599 226.980515,169.327454 226.962479,165.459732 
	C226.869263,145.476379 226.856323,125.492401 226.903519,105.508850 
	C226.912155,101.846962 226.430069,98.476707 222.009491,98.306068 
	C217.232712,98.121674 216.548904,101.633919 216.582169,105.482918 
	C216.634857,111.577652 216.596207,117.673180 216.596207,123.578743 
	C215.727203,123.872444 215.420380,124.066826 215.113403,124.067062 
	C156.831070,124.112190 98.548698,124.124420 40.266472,124.225204 
	C36.938503,124.230957 36.388653,122.500839 36.399239,119.865059 
	C36.420635,114.536140 36.381233,109.206963 36.404922,103.878059 
	C36.421261,100.203514 34.477772,98.055855 30.974798,98.179825 
	C27.719175,98.295029 26.051327,100.545021 26.056387,103.916977 
	C26.088125,125.066422 26.114597,146.215912 26.095583,167.365356 
	C26.092474,170.823807 27.752953,172.723083 31.095209,172.950836 
	C34.643494,173.192642 36.249706,171.191666 36.263691,167.774612 
	C36.280430,163.685181 36.267643,159.595627 36.267643,155.520630 
	C96.711868,155.520630 156.421967,155.520630 216.465271,155.520630 
	C216.465271,158.948898 216.465271,162.068893 216.522568,166.013260 
M157.500076,107.169243 
	C128.671280,107.209343 99.838631,107.004448 71.016312,107.457176 
	C63.558945,107.574318 56.013271,109.288208 48.743694,111.175774 
	C44.962124,112.157661 41.224762,114.714119 40.794029,120.195847 
	C98.044495,120.195847 154.922028,120.195847 212.538559,120.195847 
	C211.718948,118.520805 211.373138,117.021736 210.455887,116.078270 
	C206.728912,112.244881 202.364059,109.251755 196.871231,108.940269 
	C184.088470,108.215370 171.291382,107.743576 157.500076,107.169243 
z"/>
<path fill="#0C0C0C" opacity="1.000000" stroke="none" 
	d="
M47.094837,96.005341 
	C47.034111,89.309113 46.973389,82.612892 47.390697,75.359467 
	C49.268391,70.439476 50.604939,66.080406 47.113731,62.006184 
	C47.068825,53.245365 47.013153,44.484577 46.984455,35.723705 
	C46.973396,32.348572 48.977146,29.890049 52.001228,30.334879 
	C53.903873,30.614750 55.828709,33.267437 56.976421,35.290813 
	C57.774654,36.698071 57.054813,38.891006 57.432709,40.642422 
	C57.636047,41.584812 58.723217,42.336506 59.825359,43.523277 
	C60.521534,43.711388 60.803944,43.550461 61.086353,43.389534 
	C67.742867,43.310509 74.399338,43.166992 81.055893,43.163120 
	C118.873589,43.141102 156.691315,43.152458 194.970779,43.152458 
	C195.131287,40.436100 194.673187,37.605263 195.612701,35.358997 
	C196.496384,33.246212 198.680847,30.533337 200.603775,30.258446 
	C203.755157,29.807938 205.527588,32.583817 205.532120,35.852291 
	C205.562149,57.471210 205.547653,79.090195 205.547653,100.153122 
	C153.788437,95.085876 102.364952,94.601372 50.351471,99.790771 
	C48.888252,98.321861 47.991547,97.163605 47.094837,96.005341 
z"/>
<path fill="#0D0D0D" opacity="1.000000" stroke="none" 
	d="
M216.493927,165.601074 
	C216.465271,162.068893 216.465271,158.948898 216.465271,155.520630 
	C156.421967,155.520630 96.711868,155.520630 36.267643,155.520630 
	C36.267643,159.595627 36.280430,163.685181 36.263691,167.774612 
	C36.249706,171.191666 34.643494,173.192642 31.095209,172.950836 
	C27.752953,172.723083 26.092474,170.823807 26.095583,167.365356 
	C26.114597,146.215912 26.088125,125.066422 26.056387,103.916977 
	C26.051327,100.545021 27.719175,98.295029 30.974798,98.179825 
	C34.477772,98.055855 36.421261,100.203514 36.404922,103.878059 
	C36.381233,109.206963 36.420635,114.536140 36.399239,119.865059 
	C36.388653,122.500839 36.938503,124.230957 40.266472,124.225204 
	C98.548698,124.124420 156.831070,124.112190 215.113403,124.067062 
	C215.420380,124.066826 215.727203,123.872444 216.596207,123.578743 
	C216.596207,117.673180 216.634857,111.577652 216.582169,105.482918 
	C216.548904,101.633919 217.232712,98.121674 222.009491,98.306068 
	C226.430069,98.476707 226.912155,101.846962 226.903519,105.508850 
	C226.856323,125.492401 226.869263,145.476379 226.962479,165.459732 
	C226.980515,169.327454 226.437561,172.770599 221.778595,172.958984 
	C217.126480,173.147095 216.823700,169.441299 216.493927,165.601074 
z"/>
<path fill="#0F0F0F" opacity="1.000000" stroke="none" 
	d="
M158.000092,107.169235 
	C171.291382,107.743576 184.088470,108.215370 196.871231,108.940269 
	C202.364059,109.251755 206.728912,112.244881 210.455887,116.078270 
	C211.373138,117.021736 211.718948,118.520805 212.538559,120.195847 
	C154.922028,120.195847 98.044495,120.195847 40.794029,120.195847 
	C41.224762,114.714119 44.962124,112.157661 48.743694,111.175774 
	C56.013271,109.288208 63.558945,107.574318 71.016312,107.457176 
	C99.838631,107.004448 128.671280,107.209343 158.000092,107.169235 
z"/>
<path fill="#020202" opacity="1.000000" stroke="none" 
	d="
M47.036491,62.463398 
	C50.604939,66.080406 49.268391,70.439476 47.481808,74.898392 
	C47.049671,70.969872 47.004459,66.945244 47.036491,62.463398 
z"/>
<path fill="#020202" opacity="1.000000" stroke="none" 
	d="
M47.015259,96.390656 
	C47.991547,97.163605 48.888252,98.321861 49.920418,99.801407 
	C49.204052,100.667007 48.352234,101.211319 46.935680,102.116493 
	C46.935680,99.857162 46.935680,98.316559 47.015259,96.390656 
z"/>
<path fill="#000000" opacity="1.000000" stroke="none" 
	d="
M60.846664,43.308052 
	C60.803944,43.550461 60.521534,43.711388 60.183327,43.630814 
	C60.287342,43.335064 60.447159,43.280819 60.846664,43.308052 
z"/>
</svg>