<svg version="1.1" id="Layer_1" xmlns="http://www.w3.org/2000/svg" xmlns:xlink="http://www.w3.org/1999/xlink" x="0px" y="0px"
	 width="100%" viewBox="0 0 139 106" enable-background="new 0 0 139 106" xml:space="preserve">
<path fill="#E8ECEC" opacity="1.000000" stroke="none" 
	d="
M44.000000,107.000000 
	C29.749689,107.000000 15.499378,107.000000 1.000000,107.000000 
	C1.000000,96.313728 1.000000,85.625519 1.374338,74.460480 
	C2.704968,73.473213 4.548575,72.691170 4.487646,72.492119 
	C3.005007,67.648613 8.037483,65.689735 9.466848,61.998390 
	C13.647556,61.582390 17.371147,61.166473 21.198269,60.713482 
	C21.301798,60.676403 21.423483,60.859608 21.739738,60.799179 
	C22.346664,60.440365 22.637335,60.141979 22.925045,59.887035 
	C22.922085,59.930473 22.839458,59.902988 23.089569,59.811703 
	C23.534569,59.432945 23.729454,59.145473 23.931887,58.898506 
	C23.939432,58.939007 23.858332,58.924438 24.104429,58.823631 
	C24.535799,58.429455 24.721069,58.136089 24.886141,57.879066 
	C24.865940,57.915413 24.809813,57.854042 25.183725,57.833313 
	C26.026249,56.524654 26.494858,55.236729 26.981951,53.972946 
	C27.000433,53.997093 26.945925,53.970238 27.293850,53.916988 
	C28.697731,52.283928 29.753687,50.704113 30.736280,49.234058 
	C31.793352,51.445469 32.882755,53.724518 34.077034,56.242767 
	C34.168205,56.823856 34.154503,57.165756 34.102974,57.996265 
	C36.061138,67.328476 38.057129,76.172073 40.128365,85.162537 
	C40.203606,85.309402 40.138477,85.632942 40.093456,86.105545 
	C40.990520,90.387138 41.932610,94.196144 42.972374,98.194702 
	C43.070053,98.384254 43.074757,98.810722 43.076839,99.138931 
	C43.448193,99.958473 43.817467,100.449814 44.381695,101.061295 
	C44.795887,101.415771 44.909359,101.693344 44.668007,102.285522 
	C44.279289,104.037926 44.139645,105.518959 44.000000,107.000000 
z"/>
<path fill="#DEE3E5" opacity="1.000000" stroke="none" 
	d="
M140.000000,44.000000 
	C140.000000,52.687565 140.000000,61.375126 139.654831,70.604736 
	C136.604965,74.729172 134.320251,78.767395 131.072144,81.759956 
	C128.093201,84.504547 125.781769,86.996346 125.909111,91.275909 
	C125.942741,92.406242 125.111862,93.664711 124.425217,94.696060 
	C121.670761,98.833290 118.817024,102.904427 116.000000,107.000000 
	C108.645744,107.000000 101.291496,107.000000 93.460861,106.606384 
	C92.957771,105.688553 92.931076,105.164352 93.141220,104.427307 
	C95.222656,102.148155 97.067253,100.081841 99.216553,97.782806 
	C99.961670,94.905251 100.402100,92.260414 100.813950,89.455093 
	C100.785370,89.294617 100.941765,89.008575 101.268570,88.827744 
	C101.863647,86.134117 102.131927,83.621323 102.399490,80.737907 
	C102.573700,79.908653 102.748619,79.450005 103.166702,78.834366 
	C103.666412,76.796570 103.922958,74.915779 104.159500,72.754349 
	C104.328239,71.957130 104.516998,71.440552 105.033005,70.733078 
	C107.236038,64.665977 109.051567,58.768669 111.089638,52.949299 
	C111.274231,52.422218 112.891548,52.396912 113.890656,52.458397 
	C114.260452,53.549809 114.583115,54.321411 114.967667,55.379753 
	C115.392998,56.096661 115.756439,56.526821 116.076744,56.964539 
	C116.033600,56.972092 116.084663,56.900909 116.062134,57.293556 
	C117.918915,62.292572 123.159355,63.530666 130.345917,60.908287 
	C132.177124,60.236950 133.665024,59.642403 135.518951,59.021812 
	C139.089630,57.906315 138.343948,56.014610 136.778503,53.729675 
	C136.397415,52.775703 136.141052,52.073814 135.786942,51.072258 
	C135.344971,50.552094 135.000732,50.331589 134.289948,49.983139 
	C132.321823,49.587688 130.666245,48.920231 129.128784,49.127758 
	C124.534515,49.747879 122.941345,47.366776 123.040237,43.317764 
	C123.983505,43.993221 124.440521,45.154560 125.130653,45.315357 
	C127.222816,45.802822 131.224701,46.345009 131.286819,46.089355 
	C132.903763,39.434853 136.733444,42.950237 140.000000,44.000000 
z"/>
<path fill="#EEF1F1" opacity="1.000000" stroke="none" 
	d="
M9.009733,61.998474 
	C8.037483,65.689735 3.005007,67.648613 4.487646,72.492119 
	C4.548575,72.691170 2.704968,73.473213 1.374338,73.991821 
	C1.000000,49.762100 1.000000,25.524202 1.000000,1.000000 
	C13.686127,1.000000 26.374405,1.000000 39.523811,1.369358 
	C39.011127,3.351020 37.993027,4.938742 37.079567,6.584539 
	C36.501015,7.626922 35.349819,9.220947 35.701622,9.772042 
	C38.406460,14.009109 35.549831,14.687478 32.470894,14.954761 
	C29.215977,15.237320 29.041815,17.281338 28.973848,19.786716 
	C28.898617,22.559866 30.431086,22.913008 32.703907,23.108356 
	C33.807354,23.203197 34.813404,24.431274 35.497643,25.069309 
	C30.741821,22.913881 27.658575,24.726997 25.819725,28.634823 
	C24.145893,32.191952 23.053225,36.022549 21.724405,39.757515 
	C21.744429,39.782425 21.801573,39.811066 21.522224,39.970589 
	C21.007982,40.725677 20.773087,41.321239 20.333286,42.148880 
	C19.736933,43.548706 19.345484,44.716454 18.708721,46.074242 
	C17.959999,47.166317 17.456587,48.068359 16.965565,48.979832 
	C16.977953,48.989258 16.966333,48.955067 16.523010,48.960152 
	C14.915429,48.976234 13.750151,49.023701 12.587106,48.991207 
	C9.454048,48.903664 6.369949,49.134808 5.236770,52.702995 
	C4.050116,56.439556 5.600727,59.163155 9.011992,61.178257 
	C9.007903,61.633911 9.008819,61.816193 9.009733,61.998474 
M26.519205,24.274271 
	C26.269850,24.011911 26.022789,23.747087 25.758293,23.500998 
	C25.751482,23.494659 25.553713,23.693562 25.445002,23.796747 
	C25.694675,24.059208 25.944349,24.321669 26.519205,24.274271 
z"/>
<path fill="#EDF0EF" opacity="1.000000" stroke="none" 
	d="
M35.863544,25.146317 
	C34.813404,24.431274 33.807354,23.203197 32.703907,23.108356 
	C30.431086,22.913008 28.898617,22.559866 28.973848,19.786716 
	C29.041815,17.281338 29.215977,15.237320 32.470894,14.954761 
	C35.549831,14.687478 38.406460,14.009109 35.701622,9.772042 
	C35.349819,9.220947 36.501015,7.626922 37.079567,6.584539 
	C37.993027,4.938742 39.011127,3.351020 39.992470,1.369358 
	C53.354229,1.000000 66.708458,1.000000 80.524963,1.363633 
	C80.325020,3.485459 79.662788,5.243652 78.666962,7.000354 
	C77.888588,6.999743 77.443810,7.000622 76.788483,6.959369 
	C76.577919,6.917236 76.151718,6.864342 76.113678,6.647063 
	C76.075645,6.429785 76.000969,5.993683 75.838669,5.765380 
	C75.337242,5.394867 74.998116,5.252657 74.479141,5.108678 
	C74.299286,5.106910 74.006950,4.897292 73.825539,4.607377 
	C70.503807,1.920811 68.645851,3.535503 67.100471,6.570093 
	C67.018845,6.756907 66.677094,6.979294 66.330215,6.997559 
	C62.563843,8.181145 62.707378,10.461660 64.095505,13.351551 
	C64.119522,13.578900 63.937435,13.998309 63.610405,14.063572 
	C63.299129,15.132720 63.314884,16.136606 63.339928,17.372002 
	C63.349213,17.603510 63.122623,18.007723 62.832237,18.192459 
	C59.578796,21.626677 56.139366,24.578773 53.848774,28.248045 
	C52.660183,30.152039 52.530945,33.867783 53.619701,35.817837 
	C56.398205,40.794380 54.296070,44.889374 52.521889,49.279865 
	C52.089783,47.754562 51.657677,46.229259 51.118008,44.324276 
	C47.524654,46.429028 45.715687,44.444302 44.083118,41.801067 
	C43.624001,41.057724 42.715122,40.592163 41.924591,39.844357 
	C41.836639,39.689522 41.879467,39.335968 41.916306,38.875938 
	C41.304012,35.513077 43.992649,31.496038 39.037796,29.814159 
	C38.933289,29.632666 38.926472,29.213858 38.916225,28.879772 
	C38.525524,28.049295 38.145073,27.552906 37.562027,26.969513 
	C37.116203,26.683886 36.986778,26.427753 36.855091,25.875875 
	C36.451511,25.440804 36.164001,25.243971 35.902740,25.075783 
	C35.928997,25.104425 35.863544,25.146317 35.863544,25.146317 
z"/>
<path fill="#E8EBEC" opacity="1.000000" stroke="none" 
	d="
M79.000565,7.001846 
	C79.662788,5.243652 80.325020,3.485459 80.993622,1.363633 
	C93.354225,1.000000 105.708458,1.000000 118.488129,1.348786 
	C116.612381,5.681512 114.311188,9.665452 111.746231,14.106028 
	C109.681320,16.545900 107.188957,19.490839 104.696602,22.435778 
	C105.131882,22.623802 105.567162,22.811825 105.869751,23.299084 
	C105.504066,24.425434 105.271088,25.252552 104.963196,26.304216 
	C104.706169,26.810411 104.450523,26.983458 103.736847,27.040722 
	C102.859703,27.088253 102.157707,26.951120 101.905624,27.226234 
	C97.596321,31.929407 93.378136,36.716282 89.053703,41.405247 
	C87.861198,42.698269 86.388420,43.732807 85.032440,44.444138 
	C84.186470,37.676731 83.235596,31.363144 82.582581,25.018896 
	C82.359566,22.852173 82.928284,20.610947 83.053154,18.399126 
	C83.146950,16.737675 83.417419,13.688851 83.083420,13.614330 
	C79.275589,12.764729 79.890785,9.449476 79.000565,7.001846 
z"/>
<path fill="#E5E7E9" opacity="1.000000" stroke="none" 
	d="
M106.002441,22.999847 
	C105.567162,22.811825 105.131882,22.623802 104.696602,22.435778 
	C107.188957,19.490839 109.681320,16.545900 111.746231,14.106028 
	C114.311188,9.665452 116.612381,5.681512 118.956787,1.348786 
	C125.922249,1.000000 132.844498,1.000000 140.000000,1.000000 
	C140.000000,7.018423 140.000000,13.039836 139.644592,19.572990 
	C134.420044,22.247175 130.047760,24.697060 127.755882,30.133488 
	C126.099922,34.061516 127.189804,39.121258 122.765198,41.990082 
	C122.542259,41.991764 122.096077,41.995365 121.932007,41.799957 
	C121.527000,41.369389 121.286064,41.134232 121.034439,40.645729 
	C120.941299,40.244774 120.858856,40.097160 120.758484,39.722656 
	C120.565224,39.230049 120.324692,39.052788 120.008125,38.981094 
	C119.997299,38.998211 120.031563,38.977528 120.009552,38.626404 
	C119.637398,37.218407 119.287254,36.161533 118.892906,34.791843 
	C118.519386,33.482937 118.190079,32.486847 117.895226,31.043560 
	C117.929520,28.392199 118.641739,25.692751 114.864075,26.111635 
	C114.897873,26.084881 114.920441,26.168089 114.817123,25.916477 
	C114.412338,25.478018 114.110886,25.291170 113.856491,25.125736 
	C113.903564,25.147150 113.837410,25.226646 113.808060,24.825624 
	C111.186623,23.949684 108.594536,23.474766 106.002441,22.999847 
z"/>
<path fill="#E0E6E6" opacity="1.000000" stroke="none" 
	d="
M92.904381,104.640144 
	C92.931076,105.164352 92.957771,105.688553 92.992233,106.606384 
	C80.645775,107.000000 68.291542,107.000000 55.468620,106.636772 
	C55.000912,105.547096 55.001900,104.820641 55.125900,103.989487 
	C55.248917,103.884789 55.571148,103.906509 55.865372,103.830093 
	C56.428093,103.462914 56.696587,103.172157 56.963531,102.924606 
	C56.961979,102.967812 56.876610,102.954109 57.117706,102.842125 
	C57.554607,102.441589 57.750416,102.153038 57.955078,101.910507 
	C57.963928,101.956528 57.870392,101.962349 58.136581,101.793427 
	C58.573181,101.245033 58.743591,100.865555 58.881271,100.344955 
	C58.848541,100.203827 59.039322,99.985756 59.271053,99.789749 
	C59.642120,99.215302 59.781456,98.836853 59.831085,98.365997 
	C59.741383,98.273582 59.879448,98.056137 60.177380,97.830208 
	C60.933533,96.731316 61.739571,95.879318 61.793636,94.982002 
	C62.149593,89.074135 69.121429,84.580772 64.622360,77.925735 
	C74.415070,76.954445 69.165070,69.410156 71.584351,65.119347 
	C72.440086,66.316666 72.711655,67.553535 73.005333,68.785126 
	C73.423340,70.538139 73.675095,72.358704 74.326103,74.021935 
	C75.401947,76.770569 76.764275,79.405846 77.958183,82.109947 
	C78.669716,83.721519 79.290207,85.373306 80.154846,87.306412 
	C80.862587,89.260529 81.367104,90.915237 81.765839,92.873497 
	C81.808334,93.795219 81.956612,94.413391 82.111336,95.343117 
	C82.364677,95.970245 82.611565,96.285828 82.720657,96.674271 
	C82.582848,96.747139 82.670563,97.046318 82.672241,97.428467 
	C84.608627,103.625389 86.530312,104.908249 92.904381,104.640144 
z"/>
<path fill="#DEE1E4" opacity="1.000000" stroke="none" 
	d="
M116.468689,107.000000 
	C118.817024,102.904427 121.670761,98.833290 124.425217,94.696060 
	C125.111862,93.664711 125.942741,92.406242 125.909111,91.275909 
	C125.781769,86.996346 128.093201,84.504547 131.072144,81.759956 
	C134.320251,78.767395 136.604965,74.729172 139.654831,71.073395 
	C140.000000,82.911789 140.000000,94.823570 140.000000,107.000000 
	C132.314484,107.000000 124.625931,107.000000 116.468689,107.000000 
z"/>
<path fill="#E3E5E5" opacity="1.000000" stroke="none" 
	d="
M122.988136,41.988403 
	C127.189804,39.121258 126.099922,34.061516 127.755882,30.133488 
	C130.047760,24.697060 134.420044,22.247175 139.644592,20.042366 
	C140.000000,27.687576 140.000000,35.375153 140.000000,43.531364 
	C136.733444,42.950237 132.903763,39.434853 131.286819,46.089355 
	C131.224701,46.345009 127.222816,45.802822 125.130653,45.315357 
	C124.440521,45.154560 123.983505,43.993221 123.052696,43.275463 
	C122.685486,43.261551 122.751442,43.206009 122.832306,42.905823 
	C122.938156,42.399891 122.963150,42.194149 122.988136,41.988403 
z"/>
<path fill="#DEE9EC" opacity="1.000000" stroke="none" 
	d="
M55.002892,104.094193 
	C55.001900,104.820641 55.000912,105.547096 54.999962,106.636772 
	C52.629444,107.000000 50.258884,107.000000 47.444557,106.612473 
	C47.009769,105.449959 47.018753,104.674973 47.375221,103.944946 
	C50.132427,105.211769 52.551800,105.760345 55.002892,104.094193 
z"/>
<path fill="#E0E6E6" opacity="1.000000" stroke="none" 
	d="
M47.027737,103.899986 
	C47.018753,104.674973 47.009769,105.449959 47.000393,106.612473 
	C46.250000,107.000000 45.500000,107.000000 44.375000,107.000000 
	C44.139645,105.518959 44.279289,104.037926 44.928230,102.409760 
	C45.967594,102.808418 46.497665,103.354202 47.027737,103.899986 
z"/>
<path fill="#44A3B5" opacity="1.000000" stroke="none" 
	d="
M9.016995,60.904881 
	C5.600727,59.163155 4.050116,56.439556 5.236770,52.702995 
	C6.369949,49.134808 9.454048,48.903664 12.587106,48.991207 
	C13.750151,49.023701 14.915429,48.976234 16.540436,49.331524 
	C17.291748,52.000000 17.823935,53.293385 20.732779,52.005627 
	C22.633253,51.164272 25.055731,51.502045 27.246271,51.647743 
	C27.147411,52.645969 27.046669,53.308105 26.945927,53.970238 
	C26.945925,53.970238 27.000433,53.997093 26.735603,54.182365 
	C25.917120,55.529774 25.363466,56.691906 24.809813,57.854042 
	C24.809813,57.854042 24.865940,57.915413 24.630222,57.966152 
	C24.215780,58.319405 24.037056,58.621922 23.858330,58.924438 
	C23.858332,58.924438 23.939432,58.939007 23.674088,58.981033 
	C23.218981,59.316372 23.029219,59.609680 22.839458,59.902988 
	C22.839458,59.902988 22.922085,59.930473 22.616274,59.958549 
	C22.014803,60.277618 21.719145,60.568615 21.423485,60.859612 
	C21.423483,60.859608 21.301798,60.676403 20.725979,60.698761 
	C16.439106,60.782375 12.728050,60.843628 9.016995,60.904881 
z"/>
<path fill="#3D9BB1" opacity="1.000000" stroke="none" 
	d="
M34.140800,57.507652 
	C34.154503,57.165756 34.168205,56.823856 34.104736,55.822170 
	C33.877071,53.766586 33.726582,52.370796 33.986771,50.978096 
	C37.203903,49.655056 40.010365,48.328922 42.959129,47.365959 
	C43.705578,50.828648 44.309723,53.928162 44.712860,57.193409 
	C44.704880,57.914047 44.897903,58.468948 45.135963,59.340187 
	C45.149269,60.080605 45.117527,60.504692 44.739613,61.005135 
	C41.921272,63.066818 39.449104,65.052155 36.760315,66.735252 
	C35.742725,63.457897 34.941765,60.482777 34.140800,57.507652 
z"/>
<path fill="#3FA191" opacity="1.000000" stroke="none" 
	d="
M47.375221,103.944946 
	C46.497665,103.354202 45.967594,102.808418 45.177299,102.138397 
	C44.909359,101.693344 44.795887,101.415771 44.336609,100.753944 
	C43.755962,99.821213 43.415359,99.315964 43.074757,98.810722 
	C43.074757,98.810722 43.070053,98.384254 42.999130,97.816132 
	C42.908237,96.490845 42.888268,95.733688 43.192364,95.127274 
	C45.363991,95.379051 47.226067,95.659943 49.053566,95.512428 
	C50.119144,95.426422 51.431030,93.987061 52.116955,94.296928 
	C57.771423,96.851311 58.896996,92.208694 60.972244,89.416656 
	C60.619976,92.573761 60.249710,95.314949 59.879448,98.056137 
	C59.879448,98.056137 59.741383,98.273582 59.587173,98.557861 
	C59.301754,99.223351 59.170540,99.604553 59.039322,99.985756 
	C59.039322,99.985756 58.848541,100.203827 58.624702,100.528381 
	C58.224045,101.222748 58.047218,101.592552 57.870392,101.962349 
	C57.870392,101.962349 57.963928,101.956528 57.694679,101.997025 
	C57.242493,102.343048 57.059551,102.648582 56.876610,102.954109 
	C56.876610,102.954109 56.961979,102.967812 56.677448,103.011780 
	C56.118996,103.339340 55.845074,103.622925 55.571148,103.906509 
	C55.571148,103.906509 55.248917,103.884789 55.125904,103.989487 
	C52.551800,105.760345 50.132427,105.211769 47.375221,103.944946 
z"/>
<path fill="#3A9DA1" opacity="1.000000" stroke="none" 
	d="
M40.138477,85.632942 
	C40.138477,85.632942 40.203606,85.309402 40.152985,84.745041 
	C39.694824,81.453316 39.287289,78.725952 39.279373,75.997536 
	C42.118885,75.329765 44.558781,74.663048 47.044621,74.359299 
	C47.726955,76.808655 48.363342,78.895050 48.639732,80.995316 
	C45.835869,82.699799 43.391998,84.390404 40.746941,85.966766 
	C40.545757,85.852539 40.138477,85.632942 40.138477,85.632942 
z"/>
<path fill="#DEE9EC" opacity="1.000000" stroke="none" 
	d="
M38.879753,75.998589 
	C39.287289,78.725952 39.694824,81.453316 40.077744,84.598175 
	C38.057129,76.172073 36.061138,67.328476 34.102974,57.996265 
	C34.941765,60.482777 35.742725,63.457897 36.738388,67.129921 
	C37.581978,70.550743 38.230865,73.274666 38.879753,75.998589 
z"/>
<path fill="#DEE9EC" opacity="1.000000" stroke="none" 
	d="
M33.576096,50.975002 
	C33.726582,52.370796 33.877071,53.766586 33.999859,55.582977 
	C32.882755,53.724518 31.793352,51.445469 30.736280,49.234058 
	C29.753687,50.704113 28.697731,52.283928 27.293850,53.916988 
	C27.046669,53.308105 27.147411,52.645969 27.232359,51.601265 
	C27.216564,51.218693 27.133341,51.170189 27.380898,51.077065 
	C27.741404,50.658218 27.854351,50.332497 28.059029,49.865341 
	C28.150759,49.723907 28.130335,49.387379 28.360233,49.148880 
	C28.764723,48.283203 28.939314,47.656021 29.074112,47.028133 
	C29.034321,47.027428 29.076267,47.095070 29.327843,46.921486 
	C29.775051,46.178089 29.970686,45.608273 30.469490,45.010342 
	C31.173695,45.015858 31.574732,45.049492 31.971764,45.432400 
	C32.503868,47.512783 33.039982,49.243893 33.576096,50.975002 
z"/>
<path fill="#DEE9EC" opacity="1.000000" stroke="none" 
	d="
M40.093456,86.105545 
	C40.138477,85.632942 40.545757,85.852539 40.722130,86.339523 
	C41.292210,88.226471 41.685913,89.626450 42.051376,91.369598 
	C42.290611,92.329292 42.558090,92.945801 42.720062,93.790886 
	C42.699139,94.338478 42.783718,94.657501 42.868298,94.976524 
	C42.888268,95.733688 42.908237,96.490845 42.901451,97.626572 
	C41.932610,94.196144 40.990520,90.387138 40.093456,86.105545 
z"/>
<path fill="#DEE9EC" opacity="1.000000" stroke="none" 
	d="
M9.011992,61.178257 
	C12.728050,60.843628 16.439106,60.782375 20.622450,60.735840 
	C17.371147,61.166473 13.647556,61.582390 9.466848,61.998390 
	C9.008819,61.816193 9.007903,61.633911 9.011992,61.178257 
z"/>
<path fill="#DEE9EC" opacity="1.000000" stroke="none" 
	d="
M25.183725,57.833313 
	C25.363466,56.691906 25.917120,55.529774 26.717121,54.158218 
	C26.494858,55.236729 26.026249,56.524654 25.183725,57.833313 
z"/>
<path fill="#DEE9EC" opacity="1.000000" stroke="none" 
	d="
M43.076839,99.138931 
	C43.415359,99.315964 43.755962,99.821213 44.141651,100.633804 
	C43.817467,100.449814 43.448193,99.958473 43.076839,99.138931 
z"/>
<path fill="#DEE9EC" opacity="1.000000" stroke="none" 
	d="
M21.739738,60.799179 
	C21.719145,60.568615 22.014803,60.277618 22.619236,59.915112 
	C22.637335,60.141979 22.346664,60.440365 21.739738,60.799179 
z"/>
<path fill="#DEE9EC" opacity="1.000000" stroke="none" 
	d="
M23.089569,59.811703 
	C23.029219,59.609680 23.218981,59.316372 23.666542,58.940533 
	C23.729454,59.145473 23.534569,59.432945 23.089569,59.811703 
z"/>
<path fill="#DEE9EC" opacity="1.000000" stroke="none" 
	d="
M24.104427,58.823631 
	C24.037056,58.621922 24.215780,58.319405 24.650423,57.929806 
	C24.721069,58.136089 24.535799,58.429455 24.104427,58.823631 
z"/>
<path fill="#36938C" opacity="1.000000" stroke="none" 
	d="
M121.045120,40.899075 
	C121.286064,41.134232 121.527000,41.369389 121.930290,42.053284 
	C122.312241,42.736683 122.531845,42.971344 122.751442,43.206009 
	C122.751442,43.206009 122.685486,43.261551 122.673027,43.303848 
	C122.941345,47.366776 124.534515,49.747879 129.128784,49.127758 
	C130.666245,48.920231 132.321823,49.587688 134.430084,50.250851 
	C135.252747,50.888313 135.568710,51.130119 135.884689,51.371925 
	C136.141052,52.073814 136.397415,52.775703 136.689468,54.057472 
	C136.201096,56.107517 135.677017,57.577682 135.152939,59.047852 
	C133.665024,59.642403 132.177124,60.236950 129.907547,60.830025 
	C124.446777,60.621799 119.347603,61.809853 116.084663,56.900909 
	C116.084663,56.900909 116.033600,56.972092 116.068726,56.643238 
	C116.049332,55.890308 115.994820,55.466228 116.339951,55.026367 
	C117.825882,54.289421 119.711769,53.703720 119.860832,52.823792 
	C120.526421,48.894764 120.696228,44.881752 121.045120,40.899075 
z"/>
<path fill="#42A275" opacity="1.000000" stroke="none" 
	d="
M82.104889,95.031563 
	C81.956612,94.413391 81.808334,93.795219 81.814140,92.477890 
	C84.792641,89.524940 87.313751,86.507446 90.526520,85.231453 
	C93.760788,83.946915 97.682678,84.393723 101.284119,84.493614 
	C101.157234,86.273079 101.049500,87.640823 100.941765,89.008575 
	C100.941765,89.008575 100.785370,89.294617 100.609192,89.553436 
	C100.433022,89.812263 100.022087,90.004616 99.747818,90.262543 
	C99.363121,91.518173 99.252693,92.515877 99.220322,93.630486 
	C99.298370,93.747398 99.197815,94.009941 98.773209,94.006454 
	C93.867485,93.150879 89.386345,92.002960 85.951385,96.610291 
	C85.491035,97.227753 83.794594,96.923660 82.670563,97.046310 
	C82.670563,97.046318 82.582848,96.747139 82.685638,96.371689 
	C82.560577,95.674683 82.332733,95.353127 82.104889,95.031563 
z"/>
<path fill="#4DA771" opacity="1.000000" stroke="none" 
	d="
M82.672241,97.428459 
	C83.794594,96.923660 85.491035,97.227753 85.951385,96.610291 
	C89.386345,92.002960 93.867485,93.150879 98.768509,94.408432 
	C99.096230,95.881111 99.004044,96.948318 98.911850,98.015533 
	C97.067253,100.081841 95.222656,102.148155 93.141220,104.427307 
	C86.530312,104.908249 84.608627,103.625389 82.672241,97.428459 
z"/>
<path fill="#3E9D80" opacity="1.000000" stroke="none" 
	d="
M101.303276,84.081902 
	C97.682678,84.393723 93.760788,83.946915 90.526520,85.231453 
	C87.313751,86.507446 84.792641,89.524940 81.919922,92.174339 
	C81.367104,90.915237 80.862587,89.260529 80.191467,86.908890 
	C79.981133,85.149612 79.937393,84.087273 80.303665,83.015579 
	C83.834412,81.620903 86.955154,80.235580 90.370239,78.742592 
	C91.207977,77.757401 91.751373,76.879860 92.647255,76.110748 
	C96.185829,76.812111 99.371933,77.405045 102.618439,78.257721 
	C102.760414,78.675423 102.841972,78.833389 102.923531,78.991364 
	C102.748619,79.450005 102.573700,79.908653 102.261551,81.028412 
	C101.850632,82.486984 101.576958,83.284439 101.303276,84.081902 
z"/>
<path fill="#3B9A8B" opacity="1.000000" stroke="none" 
	d="
M102.558029,77.997986 
	C99.371933,77.405045 96.185829,76.812111 92.630310,75.731125 
	C93.090927,72.009918 93.920975,68.776764 94.824867,65.929199 
	C95.004036,69.339180 96.870087,68.644424 98.559151,67.952461 
	C100.762718,67.049706 102.900124,65.985443 105.108505,65.414474 
	C105.002586,67.533508 104.854164,69.228737 104.705750,70.923965 
	C104.516998,71.440552 104.328239,71.957130 104.026840,73.059250 
	C103.462143,75.095848 103.010094,76.546921 102.558029,77.997986 
z"/>
<path fill="#CFE1E2" opacity="1.000000" stroke="none" 
	d="
M105.033005,70.733078 
	C104.854164,69.228737 105.002586,67.533508 105.165970,65.247841 
	C105.180931,64.657402 105.104279,64.312958 105.338936,64.042168 
	C105.713371,62.846237 105.853157,61.921097 106.054176,60.812859 
	C106.115417,60.629761 106.084969,60.244827 106.362595,59.948666 
	C106.721085,57.784229 106.801941,55.915958 106.944092,53.787903 
	C106.985840,53.351261 106.966293,53.174397 107.153229,52.682274 
	C108.227859,49.719074 109.096008,47.071133 109.964149,44.423191 
	C110.405281,44.391785 110.846405,44.360378 111.287529,44.328972 
	C112.204544,46.874104 113.121567,49.419235 113.990364,52.008530 
	C113.942146,52.052692 113.843521,52.138588 113.843521,52.138588 
	C112.891548,52.396912 111.274231,52.422218 111.089638,52.949299 
	C109.051567,58.768669 107.236038,64.665977 105.033005,70.733078 
z"/>
<path fill="#CFE1E2" opacity="1.000000" stroke="none" 
	d="
M116.062134,57.293556 
	C119.347603,61.809853 124.446777,60.621799 129.564255,60.906811 
	C123.159355,63.530666 117.918915,62.292572 116.062134,57.293556 
z"/>
<path fill="#CFE1E2" opacity="1.000000" stroke="none" 
	d="
M101.284119,84.493614 
	C101.576958,83.284439 101.850632,82.486984 102.262253,81.399017 
	C102.131927,83.621323 101.863647,86.134117 101.268570,88.827744 
	C101.049500,87.640823 101.157234,86.273079 101.284119,84.493614 
z"/>
<path fill="#CFE1E2" opacity="1.000000" stroke="none" 
	d="
M99.216553,97.782814 
	C99.004044,96.948318 99.096230,95.881111 99.193115,94.411919 
	C99.197815,94.009941 99.298370,93.747398 99.459114,93.335777 
	C99.753937,91.950974 99.888008,90.977798 100.022087,90.004616 
	C100.022087,90.004616 100.433022,89.812263 100.637772,89.713913 
	C100.402100,92.260414 99.961670,94.905251 99.216553,97.782814 
z"/>
<path fill="#CFE1E2" opacity="1.000000" stroke="none" 
	d="
M102.618446,78.257721 
	C103.010094,76.546921 103.462143,75.095848 104.046860,73.339874 
	C103.922958,74.915779 103.666412,76.796570 103.166702,78.834366 
	C102.841972,78.833389 102.760414,78.675423 102.618446,78.257721 
z"/>
<path fill="#CFE1E2" opacity="1.000000" stroke="none" 
	d="
M135.518951,59.021809 
	C135.677017,57.577682 136.201096,56.107517 136.814209,54.309555 
	C138.343948,56.014610 139.089630,57.906315 135.518951,59.021809 
z"/>
<path fill="#CFE1E2" opacity="1.000000" stroke="none" 
	d="
M114.905785,55.093010 
	C114.583115,54.321411 114.260452,53.549809 113.890656,52.458397 
	C113.843521,52.138588 113.942146,52.052692 114.147415,52.042397 
	C114.352684,52.032104 114.672554,52.064331 114.722351,52.413486 
	C114.906319,53.453159 115.040489,54.143673 115.107330,54.898777 
	C115.039993,54.963364 114.905785,55.093010 114.905785,55.093010 
z"/>
<path fill="#CFE1E2" opacity="1.000000" stroke="none" 
	d="
M115.940308,55.042152 
	C115.994820,55.466228 116.049332,55.890308 116.111862,56.635685 
	C115.756439,56.526821 115.392998,56.096661 114.967667,55.379753 
	C114.905785,55.093010 115.039993,54.963364 115.302895,54.962212 
	C115.565796,54.961063 115.963303,55.066891 115.973007,55.049259 
	C115.982719,55.031628 115.940308,55.042152 115.940308,55.042152 
z"/>
<path fill="#CFE1E2" opacity="1.000000" stroke="none" 
	d="
M135.786942,51.072258 
	C135.568710,51.130119 135.252747,50.888313 134.796631,50.378799 
	C135.000732,50.331589 135.344971,50.552094 135.786942,51.072258 
z"/>
<path fill="#4293BA" opacity="1.000000" stroke="none" 
	d="
M33.986771,50.978096 
	C33.039982,49.243893 32.503868,47.512783 31.925421,45.083130 
	C29.029177,41.654591 26.679026,37.822361 21.704382,39.732601 
	C23.053225,36.022549 24.145893,32.191952 25.819725,28.634823 
	C27.658575,24.726997 30.741821,22.913881 35.497643,25.069309 
	C35.863544,25.146317 35.928997,25.104425 36.001343,25.327299 
	C36.372841,25.738153 36.672001,25.926134 36.971157,26.114115 
	C36.986778,26.427753 37.116203,26.683886 37.635189,27.274963 
	C38.249454,28.182899 38.587963,28.698378 38.926472,29.213858 
	C38.926472,29.213858 38.933289,29.632666 39.052521,30.186775 
	C40.074326,33.605911 40.976898,36.470940 41.879467,39.335968 
	C41.879467,39.335968 41.836639,39.689522 41.905922,40.239979 
	C42.255749,42.861221 42.536285,44.932007 42.816826,47.002792 
	C40.010365,48.328922 37.203903,49.655056 33.986771,50.978096 
z"/>
<path fill="#419DBA" opacity="1.000000" stroke="none" 
	d="
M21.724405,39.757515 
	C26.679026,37.822361 29.029177,41.654591 31.929424,44.733856 
	C31.574732,45.049492 31.173695,45.015858 30.197893,45.168301 
	C29.440842,45.934605 29.258554,46.514839 29.076267,47.095070 
	C29.076267,47.095070 29.034321,47.027428 28.796629,47.227737 
	C28.416071,48.081158 28.273205,48.734268 28.130337,49.387379 
	C28.130335,49.387379 28.150759,49.723907 27.850636,50.002495 
	C27.411457,50.577450 27.272400,50.873821 27.133341,51.170189 
	C27.133341,51.170189 27.216564,51.218693 27.230476,51.265175 
	C25.055731,51.502045 22.633253,51.164272 20.732779,52.005627 
	C17.823935,53.293385 17.291748,52.000000 16.983759,49.326439 
	C16.966333,48.955067 16.977953,48.989258 17.316273,48.924934 
	C18.087738,47.868477 18.520887,46.876339 18.954037,45.884205 
	C19.345484,44.716454 19.736933,43.548706 20.657848,42.024689 
	C21.392069,41.049301 21.596819,40.430183 21.801571,39.811066 
	C21.801573,39.811066 21.744429,39.782425 21.724405,39.757515 
z"/>
<path fill="#EDF0EF" opacity="1.000000" stroke="none" 
	d="
M26.356613,24.429199 
	C25.944349,24.321669 25.694675,24.059208 25.445000,23.796745 
	C25.553713,23.693562 25.751482,23.494659 25.758293,23.500998 
	C26.022789,23.747087 26.269850,24.011911 26.356613,24.429199 
z"/>
<path fill="#44A3B5" opacity="1.000000" stroke="none" 
	d="
M18.708723,46.074242 
	C18.520887,46.876339 18.087738,47.868477 17.303883,48.915508 
	C17.456587,48.068359 17.959999,47.166317 18.708723,46.074242 
z"/>
<path fill="#4293BA" opacity="1.000000" stroke="none" 
	d="
M21.522224,39.970589 
	C21.596819,40.430183 21.392069,41.049301 20.862755,41.792610 
	C20.773087,41.321239 21.007982,40.725677 21.522224,39.970589 
z"/>
<path fill="#E6ECEE" opacity="1.000000" stroke="none" 
	d="
M42.959129,47.365963 
	C42.536285,44.932007 42.255749,42.861221 41.993874,40.394814 
	C42.715122,40.592163 43.624001,41.057724 44.083118,41.801067 
	C45.715687,44.444302 47.524654,46.429028 51.118008,44.324276 
	C51.657677,46.229259 52.089783,47.754562 52.521889,49.279865 
	C54.296070,44.889374 56.398205,40.794380 53.619701,35.817837 
	C52.530945,33.867783 52.660183,30.152039 53.848774,28.248045 
	C56.139366,24.578773 59.578796,21.626677 62.847004,18.610168 
	C62.715107,22.089491 62.278061,25.335844 61.654026,28.695244 
	C61.467037,28.808294 61.112217,29.061304 60.801323,29.279602 
	C60.089661,32.173004 59.688889,34.848114 59.372910,37.633270 
	C59.457699,37.743317 59.331295,37.990749 59.003498,38.217422 
	C57.107346,46.355320 55.469105,54.253746 54.016411,62.186153 
	C53.619343,64.354347 53.779388,66.624565 53.718849,69.155922 
	C53.780937,69.874474 53.807938,70.285065 53.661854,70.770355 
	C53.488770,70.845062 53.166969,71.041519 52.859810,71.287323 
	C52.446384,72.844673 52.340118,74.156227 52.195854,75.803253 
	C50.412094,78.625420 49.500694,77.946213 48.920677,75.354797 
	C48.036140,71.402847 47.052231,67.473137 46.163078,63.268456 
	C46.112385,62.660374 46.009129,62.317814 45.881668,61.724953 
	C45.585629,61.289516 45.313793,61.104382 45.046959,60.943817 
	C45.051960,60.968388 45.085789,60.928780 45.085789,60.928780 
	C45.117527,60.504692 45.149269,60.080605 45.188858,59.003670 
	C45.102432,57.909775 45.008148,57.468727 44.913868,57.027676 
	C44.309723,53.928162 43.705578,50.828648 42.959129,47.365963 
z"/>
<path fill="#387EBE" opacity="1.000000" stroke="none" 
	d="
M61.841015,28.582195 
	C62.278061,25.335844 62.715107,22.089491 63.137390,18.425430 
	C63.122623,18.007723 63.349213,17.603510 63.542931,17.110134 
	C63.803574,15.743942 63.870506,14.871125 63.937435,13.998309 
	C63.937435,13.998309 64.119522,13.578900 64.295578,13.077089 
	C65.204597,10.958137 65.937553,9.340994 66.769676,7.804321 
	C66.868843,7.884791 67.064529,8.047062 67.030289,8.450886 
	C66.523674,14.590304 63.805397,19.914499 65.716957,26.164248 
	C67.067406,30.579491 69.550278,29.915953 72.413986,29.968948 
	C75.710854,30.029959 76.085022,27.797585 76.006523,25.233929 
	C75.966019,23.911318 75.999405,22.586445 75.999405,20.519892 
	C76.897209,21.917561 77.405418,22.708715 77.913620,23.499872 
	C78.366272,23.369268 78.818916,23.238665 79.271561,23.108061 
	C78.150810,17.760221 77.030060,12.412382 75.970947,7.015742 
	C76.032585,6.966941 76.151718,6.864342 76.151718,6.864342 
	C76.151718,6.864342 76.577919,6.917236 76.901001,7.320987 
	C78.187897,13.292212 79.151703,18.859688 80.092194,24.904190 
	C80.136116,27.346027 80.038879,29.333349 80.304085,31.271063 
	C80.898003,35.610348 76.381500,39.354660 71.799744,37.728371 
	C70.899979,37.312168 70.239845,37.217789 69.626793,36.994259 
	C66.686844,35.922302 63.759632,34.815407 60.822380,33.366966 
	C60.962189,32.318947 61.107513,31.624878 61.455429,30.690022 
	C61.719021,29.826887 61.780018,29.204542 61.841015,28.582195 
z"/>
<path fill="#E6ECEE" opacity="1.000000" stroke="none" 
	d="
M80.115509,24.427162 
	C79.151703,18.859688 78.187897,13.292212 77.111565,7.363119 
	C77.443810,7.000622 77.888588,6.999743 78.666962,7.000355 
	C79.890785,9.449476 79.275589,12.764729 83.083420,13.614330 
	C83.417419,13.688851 83.146950,16.737675 83.053154,18.399126 
	C82.928284,20.610947 82.359566,22.852173 82.582581,25.018896 
	C83.235596,31.363144 84.186470,37.676731 84.975250,44.508934 
	C84.929848,45.015541 84.816643,45.142910 84.623146,44.844429 
	C83.898911,42.712349 83.368172,40.878754 82.890503,38.623947 
	C82.000885,33.610878 81.058197,29.019020 80.115509,24.427162 
z"/>
<path fill="#E6ECEE" opacity="1.000000" stroke="none" 
	d="
M41.916306,38.875938 
	C40.976898,36.470940 40.074326,33.605911 39.157028,30.368269 
	C43.992649,31.496038 41.304012,35.513077 41.916306,38.875938 
z"/>
<path fill="#E6ECEE" opacity="1.000000" stroke="none" 
	d="
M66.670509,7.723850 
	C65.937553,9.340994 65.204597,10.958137 64.271561,12.849741 
	C62.707378,10.461660 62.563843,8.181145 66.340805,7.183834 
	C66.698273,7.351845 66.670509,7.723850 66.670509,7.723850 
z"/>
<path fill="#E6ECEE" opacity="1.000000" stroke="none" 
	d="
M67.182098,6.383278 
	C68.645851,3.535503 70.503807,1.920811 73.435913,4.617462 
	C71.772964,5.226527 70.318230,5.535591 68.573212,5.899479 
	C67.915985,6.097294 67.549042,6.240286 67.182098,6.383278 
z"/>
<path fill="#E6ECEE" opacity="1.000000" stroke="none" 
	d="
M63.610405,14.063572 
	C63.870506,14.871125 63.803574,15.743942 63.533642,16.878624 
	C63.314884,16.136606 63.299129,15.132720 63.610405,14.063572 
z"/>
<path fill="#387EBE" opacity="1.000000" stroke="none" 
	d="
M68.863487,5.844656 
	C70.318230,5.535591 71.772964,5.226527 73.617325,4.907377 
	C74.006950,4.897292 74.299286,5.106910 74.565193,5.327920 
	C74.831100,5.548929 75.015274,5.981916 74.991959,6.015019 
	C74.968636,6.048122 74.923172,6.115140 74.505539,6.082471 
	C72.413338,6.064212 70.738777,6.078621 69.014626,6.030458 
	C68.965034,5.967886 68.863487,5.844656 68.863487,5.844656 
z"/>
<path fill="#387EBE" opacity="1.000000" stroke="none" 
	d="
M67.100471,6.570092 
	C67.549042,6.240286 67.915985,6.097294 68.573212,5.899479 
	C68.863487,5.844656 68.965034,5.967886 68.864822,6.271366 
	C68.197922,7.065585 67.631226,7.556324 67.064529,8.047064 
	C67.064529,8.047062 66.868843,7.884791 66.769676,7.804321 
	C66.670509,7.723850 66.698273,7.351845 66.687683,7.165569 
	C66.677094,6.979294 67.018845,6.756907 67.100471,6.570092 
z"/>
<path fill="#EEF1F1" opacity="1.000000" stroke="none" 
	d="
M38.916225,28.879772 
	C38.587963,28.698378 38.249454,28.182899 37.837784,27.361969 
	C38.145073,27.552906 38.525524,28.049295 38.916225,28.879772 
z"/>
<path fill="#E6ECEE" opacity="1.000000" stroke="none" 
	d="
M75.015274,5.981916 
	C75.015274,5.981916 74.831100,5.548929 74.745041,5.329688 
	C74.998116,5.252657 75.337242,5.394867 75.592285,5.759778 
	C75.508194,5.982480 75.015274,5.981916 75.015274,5.981916 
z"/>
<path fill="#387EBE" opacity="1.000000" stroke="none" 
	d="
M74.991959,6.015019 
	C75.015274,5.981916 75.508194,5.982480 75.754578,5.988081 
	C76.000969,5.993683 76.075645,6.429785 76.113678,6.647063 
	C76.151718,6.864342 76.032585,6.966941 75.778664,6.888478 
	C75.281670,6.615229 75.081146,6.383604 74.923172,6.115140 
	C74.923172,6.115140 74.968636,6.048122 74.991959,6.015019 
z"/>
<path fill="#EEF1F1" opacity="1.000000" stroke="none" 
	d="
M36.855091,25.875875 
	C36.672001,25.926134 36.372841,25.738153 35.975086,25.298656 
	C36.164001,25.243971 36.451511,25.440804 36.855091,25.875875 
z"/>
<path fill="#E1E8E9" opacity="1.000000" stroke="none" 
	d="
M94.751022,65.543602 
	C93.920975,68.776764 93.090927,72.009918 92.277832,75.622696 
	C91.751373,76.879860 91.207977,77.757401 90.339722,78.370590 
	C89.592285,76.421593 89.169708,74.736931 88.790260,72.772362 
	C88.658745,71.968956 88.484100,71.445457 88.308296,70.529861 
	C88.118790,69.114326 87.930450,68.090897 87.772369,66.720566 
	C87.677231,65.931152 87.551834,65.488625 87.496338,64.681854 
	C87.088005,62.371296 86.609779,60.424980 86.181343,58.077995 
	C85.717911,54.452557 85.204689,51.227783 84.742538,47.647579 
	C84.801285,46.575737 84.808968,45.859322 84.816643,45.142910 
	C84.816643,45.142910 84.929848,45.015541 84.987045,44.950745 
	C86.388420,43.732807 87.861198,42.698269 89.053703,41.405247 
	C93.378136,36.716282 97.596321,31.929407 101.905624,27.226234 
	C102.157707,26.951120 102.859703,27.088253 103.702347,27.293961 
	C103.984016,27.886703 103.915680,28.219027 103.582260,28.811581 
	C103.117538,30.018831 102.917900,30.965851 102.768433,31.924768 
	C102.818611,31.936666 102.805916,31.834314 102.556282,32.054543 
	C102.143929,33.138493 101.981216,34.002220 101.828194,34.904209 
	C101.837891,34.942474 101.882240,34.877163 101.643143,35.115120 
	C101.270790,36.234344 101.137520,37.115616 100.914520,38.156307 
	C100.824791,38.315723 100.880638,38.677311 100.647964,38.984138 
	C100.217880,40.548908 100.020470,41.806850 99.756363,43.171150 
	C99.689674,43.277512 99.863083,43.459091 99.607025,43.780647 
	C98.258850,49.395870 97.166740,54.689533 95.965714,60.221325 
	C95.860397,60.802696 95.864006,61.145947 95.612427,61.779999 
	C95.190254,63.067448 95.023277,64.064087 94.771622,65.168732 
	C94.686951,65.276726 94.751022,65.543602 94.751022,65.543602 
z"/>
<path fill="#2F8CA3" opacity="1.000000" stroke="none" 
	d="
M103.847336,28.551352 
	C103.915680,28.219027 103.984016,27.886703 104.086868,27.301140 
	C104.450523,26.983458 104.706169,26.810411 105.294876,26.175129 
	C108.413445,25.623211 111.125427,25.424929 113.837410,25.226646 
	C113.837410,25.226646 113.903564,25.147150 113.943832,25.388309 
	C114.296211,25.809010 114.608330,25.988548 114.920441,26.168087 
	C114.920441,26.168089 114.897873,26.084881 114.972183,26.430553 
	C115.984589,28.347734 116.922676,29.919245 117.860764,31.490755 
	C118.190079,32.486847 118.519386,33.482937 118.873474,34.819336 
	C118.898247,35.159645 118.858490,35.214371 118.725967,35.262657 
	C118.449974,35.605247 118.547882,35.816437 118.919022,36.325493 
	C118.964478,37.470882 118.978073,38.235291 118.628860,39.045296 
	C116.995453,39.248131 115.656143,39.738888 114.468384,39.494152 
	C111.882484,38.961327 109.373817,38.053669 106.833580,37.299202 
	C106.611649,37.771832 106.389717,38.244461 106.167786,38.717091 
	C105.109207,37.474335 104.050636,36.231579 102.992050,34.594353 
	C102.929993,33.411362 102.867950,32.622837 102.805908,31.834314 
	C102.805916,31.834314 102.818611,31.936666 103.099533,31.726889 
	C103.536087,30.528524 103.691711,29.539938 103.847336,28.551352 
z"/>
<path fill="#E1E8E9" opacity="1.000000" stroke="none" 
	d="
M113.808060,24.825624 
	C111.125427,25.424929 108.413445,25.623211 105.369781,25.950584 
	C105.271088,25.252552 105.504066,24.425434 105.869751,23.299082 
	C108.594536,23.474766 111.186623,23.949684 113.808060,24.825624 
z"/>
<path fill="#2D919D" opacity="1.000000" stroke="none" 
	d="
M102.992065,34.988823 
	C104.050636,36.231579 105.109207,37.474335 106.167786,38.717091 
	C106.389717,38.244461 106.611649,37.771832 106.833580,37.299202 
	C109.373817,38.053669 111.882484,38.961327 114.468384,39.494152 
	C115.656143,39.738888 116.995453,39.248131 118.888931,39.042381 
	C119.685074,38.988419 119.858322,38.982971 120.031563,38.977528 
	C120.031563,38.977528 119.997299,38.998211 120.084747,39.180332 
	C120.314400,39.619076 120.515800,39.814774 120.776405,39.949551 
	C120.858856,40.097160 120.941299,40.244774 121.034439,40.645729 
	C120.696228,44.881752 120.526421,48.894764 119.860832,52.823792 
	C119.711769,53.703720 117.825882,54.289421 116.339951,55.026367 
	C115.940308,55.042152 115.982719,55.031628 115.980637,54.688896 
	C115.543228,53.585556 115.107895,52.824944 114.672554,52.064331 
	C114.672554,52.064331 114.352684,52.032104 114.195633,51.998238 
	C113.121567,49.419235 112.204544,46.874104 111.287529,44.328972 
	C110.846405,44.360378 110.405281,44.391785 109.964149,44.423191 
	C109.096008,47.071133 108.227859,49.719074 106.737579,52.683540 
	C103.895790,53.125210 101.676117,53.250359 99.372902,53.380215 
	C99.545898,49.878799 99.704491,46.668945 99.863083,43.459091 
	C99.863083,43.459091 99.689674,43.277512 100.058105,42.916740 
	C100.577911,41.263084 100.729271,39.970196 100.880630,38.677311 
	C100.880638,38.677311 100.824791,38.315723 101.169388,37.928909 
	C101.636734,36.653782 101.759483,35.765472 101.882233,34.877163 
	C101.882240,34.877163 101.837891,34.942474 102.120842,34.946014 
	C102.599884,34.962650 102.795975,34.975739 102.992065,34.988823 
z"/>
<path fill="#E1E8E9" opacity="1.000000" stroke="none" 
	d="
M117.895218,31.043560 
	C116.922676,29.919245 115.984589,28.347734 114.938385,26.457306 
	C118.641739,25.692751 117.929520,28.392199 117.895218,31.043560 
z"/>
<path fill="#36938C" opacity="1.000000" stroke="none" 
	d="
M120.009552,38.626404 
	C119.858322,38.982971 119.685074,38.988419 119.251755,38.996780 
	C118.978073,38.235291 118.964478,37.470882 118.934196,36.142487 
	C118.917511,35.578491 118.858490,35.214371 118.858490,35.214371 
	C118.858490,35.214371 118.898247,35.159645 118.917679,35.132153 
	C119.287254,36.161533 119.637398,37.218407 120.009552,38.626404 
z"/>
<path fill="#E1E8E9" opacity="1.000000" stroke="none" 
	d="
M114.817123,25.916477 
	C114.608330,25.988548 114.296211,25.809010 113.896759,25.366898 
	C114.110886,25.291170 114.412338,25.478018 114.817123,25.916477 
z"/>
<path fill="#DEE3E5" opacity="1.000000" stroke="none" 
	d="
M122.832306,42.905823 
	C122.531845,42.971344 122.312241,42.736683 122.094360,42.248695 
	C122.096077,41.995365 122.542259,41.991764 122.765198,41.990082 
	C122.963150,42.194149 122.938156,42.399891 122.832306,42.905823 
z"/>
<path fill="#36938C" opacity="1.000000" stroke="none" 
	d="
M120.758484,39.722656 
	C120.515800,39.814774 120.314400,39.619076 120.095573,39.163216 
	C120.324692,39.052788 120.565224,39.230049 120.758484,39.722656 
z"/>
<path fill="#DEE9EC" opacity="1.000000" stroke="none" 
	d="
M79.893661,83.024933 
	C79.937393,84.087273 79.981133,85.149612 79.988243,86.609482 
	C79.290207,85.373306 78.669716,83.721519 77.958183,82.109947 
	C76.764275,79.405846 75.401947,76.770569 74.326103,74.021935 
	C73.675095,72.358704 73.423340,70.538139 73.005333,68.785126 
	C72.711655,67.553535 72.440086,66.316666 71.584351,65.119347 
	C69.165070,69.410156 74.415070,76.954445 64.622360,77.925735 
	C69.121429,84.580772 62.149593,89.074135 61.793636,94.982002 
	C61.739571,95.879318 60.933533,96.731316 60.177380,97.830208 
	C60.249710,95.314949 60.619976,92.573761 61.196907,89.176239 
	C61.516499,87.662506 61.629421,86.805107 61.836731,85.549271 
	C63.276802,77.109322 64.622482,69.067810 65.995491,60.683876 
	C66.370270,59.283783 66.717712,58.226116 67.271439,56.827717 
	C68.325226,51.334770 69.172745,46.182552 70.282570,40.900955 
	C70.728874,40.707039 70.912865,40.642498 71.320244,40.705528 
	C71.873894,40.918671 72.204163,41.004234 72.579422,41.512905 
	C73.190964,44.960560 73.757515,47.985107 74.295319,51.389000 
	C74.856361,54.511520 75.446167,57.254688 75.999207,60.384018 
	C76.289436,62.511906 76.616440,64.253632 76.904251,66.368416 
	C77.006050,67.472618 77.147041,68.203766 77.248184,69.216187 
	C77.384010,70.021469 77.559677,70.545471 77.723732,71.462204 
	C77.907227,72.877480 78.102341,73.900032 78.274582,75.242767 
	C78.502708,76.375687 78.753700,77.188438 78.962540,78.376968 
	C79.244812,80.176811 79.569237,81.600868 79.893661,83.024933 
z"/>
<path fill="#4DA771" opacity="1.000000" stroke="none" 
	d="
M82.111328,95.343117 
	C82.332733,95.353127 82.560577,95.674683 82.823441,96.298828 
	C82.611565,96.285828 82.364677,95.970245 82.111328,95.343117 
z"/>
<path fill="#DEE9EC" opacity="1.000000" stroke="none" 
	d="
M58.136581,101.793427 
	C58.047218,101.592552 58.224045,101.222748 58.657433,100.669510 
	C58.743591,100.865555 58.573181,101.245033 58.136581,101.793427 
z"/>
<path fill="#DEE9EC" opacity="1.000000" stroke="none" 
	d="
M57.117706,102.842125 
	C57.059551,102.648582 57.242493,102.343048 57.685829,101.951004 
	C57.750416,102.153038 57.554607,102.441589 57.117706,102.842125 
z"/>
<path fill="#DEE9EC" opacity="1.000000" stroke="none" 
	d="
M55.865372,103.830093 
	C55.845074,103.622925 56.118996,103.339340 56.679001,102.968575 
	C56.696587,103.172157 56.428093,103.462914 55.865372,103.830093 
z"/>
<path fill="#DEE9EC" opacity="1.000000" stroke="none" 
	d="
M59.271053,99.789749 
	C59.170540,99.604553 59.301754,99.223351 59.676880,98.650276 
	C59.781456,98.836853 59.642120,99.215302 59.271053,99.789749 
z"/>
<path fill="#3D9DA9" opacity="1.000000" stroke="none" 
	d="
M45.905872,61.975258 
	C46.009129,62.317814 46.112385,62.660374 46.136375,63.744133 
	C46.370968,67.655670 46.684822,70.826004 46.998676,73.996338 
	C44.558781,74.663048 42.118885,75.329765 39.279373,75.997536 
	C38.230865,73.274666 37.581978,70.550743 36.955017,67.432152 
	C39.449104,65.052155 41.921272,63.066818 44.739613,61.005135 
	C45.085789,60.928780 45.051960,60.968388 45.133636,61.162491 
	C45.380196,61.635708 45.610382,61.841930 45.905872,61.975258 
z"/>
<path fill="#3D9DA9" opacity="1.000000" stroke="none" 
	d="
M44.712860,57.193409 
	C45.008148,57.468727 45.102432,57.909775 45.143818,58.687340 
	C44.897903,58.468948 44.704880,57.914047 44.712860,57.193409 
z"/>
<path fill="#339B99" opacity="1.000000" stroke="none" 
	d="
M61.742344,85.947708 
	C61.629421,86.805107 61.516499,87.662506 61.178913,88.760315 
	C58.896996,92.208694 57.771423,96.851311 52.116955,94.296928 
	C51.431030,93.987061 50.119144,95.426422 49.053566,95.512428 
	C47.226067,95.659943 45.363991,95.379051 43.192364,95.127274 
	C42.783718,94.657501 42.699139,94.338478 42.749428,93.437088 
	C42.616077,92.245285 42.347847,91.635857 42.079617,91.026421 
	C41.685913,89.626450 41.292210,88.226471 40.923317,86.453751 
	C43.391998,84.390404 45.835869,82.699799 48.928505,81.229477 
	C51.208080,81.992065 53.030785,82.238556 54.426220,83.143730 
	C56.707123,84.623283 60.645206,81.629059 61.742344,85.947708 
z"/>
<path fill="#3F9BA3" opacity="1.000000" stroke="none" 
	d="
M61.836731,85.549271 
	C60.645206,81.629059 56.707123,84.623283 54.426220,83.143730 
	C53.030785,82.238556 51.208080,81.992065 49.288498,81.215591 
	C48.363342,78.895050 47.726955,76.808655 47.044621,74.359299 
	C46.684822,70.826004 46.370968,67.655670 46.083817,64.009659 
	C47.052231,67.473137 48.036140,71.402847 48.920677,75.354797 
	C49.500694,77.946213 50.412094,78.625420 52.436264,75.493500 
	C52.865440,73.579353 53.016205,72.310432 53.166969,71.041519 
	C53.166969,71.041519 53.488770,70.845062 53.719986,71.249390 
	C53.964176,73.127296 53.917976,74.604347 54.004204,76.073624 
	C54.129074,78.201401 53.191441,80.863754 56.948978,81.040100 
	C59.959736,81.181396 61.505867,80.063759 62.029087,77.083588 
	C62.507450,74.358894 63.306446,71.690491 63.975578,68.595291 
	C64.647392,65.804306 65.307777,63.415302 65.968163,61.026302 
	C64.622482,69.067810 63.276802,77.109322 61.836731,85.549271 
z"/>
<path fill="#44A3B5" opacity="1.000000" stroke="none" 
	d="
M29.327843,46.921486 
	C29.258554,46.514839 29.440842,45.934605 29.894722,45.196415 
	C29.970686,45.608273 29.775051,46.178089 29.327843,46.921486 
z"/>
<path fill="#44A3B5" opacity="1.000000" stroke="none" 
	d="
M28.360233,49.148880 
	C28.273205,48.734268 28.416071,48.081158 28.836420,47.228443 
	C28.939314,47.656021 28.764723,48.283203 28.360233,49.148880 
z"/>
<path fill="#44A3B5" opacity="1.000000" stroke="none" 
	d="
M27.380898,51.077065 
	C27.272400,50.873821 27.411457,50.577450 27.758907,50.143929 
	C27.854351,50.332497 27.741404,50.658218 27.380898,51.077065 
z"/>
<path fill="#3FA191" opacity="1.000000" stroke="none" 
	d="
M42.051376,91.369598 
	C42.347847,91.635857 42.616077,92.245285 42.854935,93.208519 
	C42.558090,92.945801 42.290611,92.329292 42.051376,91.369598 
z"/>
<path fill="#4DA771" opacity="1.000000" stroke="none" 
	d="
M99.747818,90.262543 
	C99.888008,90.977798 99.753937,91.950974 99.381058,93.218864 
	C99.252693,92.515877 99.363121,91.518173 99.747818,90.262543 
z"/>
<path fill="#449D91" opacity="1.000000" stroke="none" 
	d="
M80.303665,83.015579 
	C79.569237,81.600868 79.244812,80.176811 79.278397,78.510986 
	C84.020393,78.882736 87.130699,77.271919 88.747131,73.052269 
	C89.169708,74.736931 89.592285,76.421593 90.045380,78.478249 
	C86.955154,80.235580 83.834412,81.620903 80.303665,83.015579 
z"/>
<path fill="#359994" opacity="1.000000" stroke="none" 
	d="
M95.867607,61.489193 
	C95.864006,61.145947 95.860397,60.802696 96.259636,60.060028 
	C98.152634,58.284901 99.642784,56.909195 101.086876,55.576015 
	C102.681931,56.037918 104.337006,56.517204 105.995850,57.401920 
	C106.028069,58.619843 106.056519,59.432335 106.084969,60.244827 
	C106.084969,60.244827 106.115417,60.629761 105.793671,61.058907 
	C105.349380,62.429684 105.226830,63.371323 105.104279,64.312958 
	C105.104279,64.312958 105.180931,64.657402 105.123466,64.824036 
	C102.900124,65.985443 100.762718,67.049706 98.559151,67.952461 
	C96.870087,68.644424 95.004036,69.339180 94.824867,65.929199 
	C94.751022,65.543602 94.686951,65.276726 95.066635,64.912796 
	C95.586746,63.528976 95.727180,62.509083 95.867607,61.489193 
z"/>
<path fill="#37949B" opacity="1.000000" stroke="none" 
	d="
M105.992096,56.996490 
	C104.337006,56.517204 102.681931,56.037918 101.086876,55.576015 
	C99.642784,56.909195 98.152634,58.284901 96.368546,59.821903 
	C97.166740,54.689533 98.258850,49.395870 99.607025,43.780647 
	C99.704491,46.668945 99.545898,49.878799 99.372902,53.380215 
	C101.676117,53.250359 103.895790,53.125210 106.531097,52.998798 
	C106.966293,53.174397 106.985840,53.351261 106.714668,54.010445 
	C106.280006,55.327347 106.136047,56.161919 105.992096,56.996490 
z"/>
<path fill="#3B9A8B" opacity="1.000000" stroke="none" 
	d="
M105.995857,57.401920 
	C106.136047,56.161919 106.280006,55.327347 106.653381,54.270226 
	C106.801941,55.915958 106.721085,57.784229 106.362595,59.948666 
	C106.056519,59.432335 106.028069,58.619843 105.995857,57.401920 
z"/>
<path fill="#3B9A8B" opacity="1.000000" stroke="none" 
	d="
M105.338936,64.042168 
	C105.226830,63.371323 105.349380,62.429684 105.732437,61.242001 
	C105.853157,61.921097 105.713371,62.846237 105.338936,64.042168 
z"/>
<path fill="#36938C" opacity="1.000000" stroke="none" 
	d="
M114.722351,52.413486 
	C115.107895,52.824944 115.543228,53.585556 115.970932,54.706528 
	C115.963303,55.066891 115.565796,54.961063 115.370232,54.897629 
	C115.040489,54.143673 114.906319,53.453159 114.722351,52.413486 
z"/>
<path fill="#2D96A7" opacity="1.000000" stroke="none" 
	d="
M63.964149,68.997284 
	C63.306446,71.690491 62.507450,74.358894 62.029087,77.083588 
	C61.505867,80.063759 59.959736,81.181396 56.948978,81.040100 
	C53.191441,80.863754 54.129074,78.201401 54.004204,76.073624 
	C53.917976,74.604347 53.964176,73.127296 53.893066,71.174690 
	C53.807938,70.285065 53.780937,69.874474 53.838623,69.227798 
	C53.923313,68.991722 54.180672,69.099991 54.426552,69.309189 
	C58.326046,73.637886 57.574272,67.218063 59.644638,67.520042 
	C61.048595,68.000183 62.506374,68.498734 63.964149,68.997284 
z"/>
<path fill="#3B8BBC" opacity="1.000000" stroke="none" 
	d="
M71.096863,40.577953 
	C70.912865,40.642498 70.728874,40.707039 70.056305,40.730171 
	C66.565933,44.774334 62.667595,41.787441 59.152512,41.605488 
	C59.196709,40.133492 59.264000,39.062119 59.331295,37.990749 
	C59.331295,37.990749 59.457699,37.743317 59.594059,37.358696 
	C60.096245,35.889690 60.462070,34.805309 60.827896,33.720924 
	C63.759632,34.815407 66.686844,35.922302 69.626793,36.994259 
	C70.239845,37.217789 70.899979,37.312168 71.761696,38.006836 
	C71.688934,39.224392 71.392899,39.901173 71.096863,40.577953 
z"/>
<path fill="#C2E5F0" opacity="1.000000" stroke="none" 
	d="
M59.003498,38.217422 
	C59.264000,39.062119 59.196709,40.133492 59.033310,41.992702 
	C58.255219,46.853073 57.573223,50.925602 56.827030,55.148891 
	C56.762829,55.299652 56.875538,55.607380 56.661232,55.927071 
	C56.302094,57.495583 56.157265,58.744408 55.873909,60.352043 
	C55.217144,63.507233 54.698910,66.303612 54.180672,69.099991 
	C54.180672,69.099991 53.923313,68.991722 53.803539,68.919846 
	C53.779388,66.624565 53.619343,64.354347 54.016411,62.186153 
	C55.469105,54.253746 57.107346,46.355320 59.003498,38.217422 
z"/>
<path fill="#C2E5F0" opacity="1.000000" stroke="none" 
	d="
M60.822380,33.366966 
	C60.462070,34.805309 60.096245,35.889690 59.509270,37.248650 
	C59.688889,34.848114 60.089661,32.173004 60.836540,29.590759 
	C61.206043,30.099350 61.229439,30.515081 61.252838,30.930811 
	C61.107513,31.624878 60.962189,32.318947 60.822380,33.366966 
z"/>
<path fill="#C2E5F0" opacity="1.000000" stroke="none" 
	d="
M52.859814,71.287323 
	C53.016205,72.310432 52.865440,73.579353 52.474266,75.158020 
	C52.340118,74.156227 52.446384,72.844673 52.859814,71.287323 
z"/>
<path fill="#3B8BBC" opacity="1.000000" stroke="none" 
	d="
M61.455429,30.690022 
	C61.229439,30.515081 61.206043,30.099350 61.147430,29.372463 
	C61.112217,29.061304 61.467037,28.808294 61.654026,28.695244 
	C61.780018,29.204542 61.719021,29.826887 61.455429,30.690022 
z"/>
<path fill="#3F9BA3" opacity="1.000000" stroke="none" 
	d="
M45.881668,61.724953 
	C45.610382,61.841930 45.380196,61.635708 45.128635,61.137924 
	C45.313793,61.104382 45.585629,61.289516 45.881668,61.724953 
z"/>
<path fill="#3278C2" opacity="1.000000" stroke="none" 
	d="
M74.505539,6.082471 
	C75.081146,6.383604 75.281670,6.615229 75.717026,6.937279 
	C77.030060,12.412382 78.150810,17.760221 79.271561,23.108061 
	C78.818916,23.238665 78.366272,23.369268 77.913620,23.499872 
	C77.405418,22.708715 76.897209,21.917561 75.999405,20.519892 
	C75.999405,22.586445 75.966019,23.911318 76.006523,25.233929 
	C76.085022,27.797585 75.710854,30.029959 72.413986,29.968948 
	C69.550278,29.915953 67.067406,30.579491 65.716957,26.164248 
	C63.805397,19.914499 66.523674,14.590304 67.030289,8.450888 
	C67.631226,7.556324 68.197922,7.065585 68.914413,6.333938 
	C70.738777,6.078621 72.413338,6.064212 74.505539,6.082471 
z"/>
<path fill="#3C86B8" opacity="1.000000" stroke="none" 
	d="
M71.320244,40.705528 
	C71.392899,39.901173 71.688934,39.224392 72.023010,38.269142 
	C76.381500,39.354660 80.898003,35.610348 80.304085,31.271063 
	C80.038879,29.333349 80.136116,27.346027 80.092194,24.904190 
	C81.058197,29.019020 82.000885,33.610878 82.641632,38.845760 
	C79.523842,42.794220 76.452782,44.536591 72.534431,41.089798 
	C72.204163,41.004234 71.873894,40.918671 71.320244,40.705528 
z"/>
<path fill="#398CB2" opacity="1.000000" stroke="none" 
	d="
M72.579422,41.512905 
	C76.452782,44.536591 79.523842,42.794220 82.588562,39.266972 
	C83.368172,40.878754 83.898911,42.712349 84.623146,44.844429 
	C84.808968,45.859322 84.801285,46.575737 84.567917,47.648567 
	C84.342224,48.004982 83.992722,48.007801 83.769226,47.754692 
	C80.471840,48.670940 77.397957,49.840294 74.324074,51.009651 
	C73.757515,47.985107 73.190964,44.960560 72.579422,41.512905 
z"/>
<path fill="#339997" opacity="1.000000" stroke="none" 
	d="
M88.790268,72.772362 
	C87.130699,77.271919 84.020393,78.882736 79.320549,78.135208 
	C78.753700,77.188438 78.502708,76.375687 78.470207,74.985123 
	C78.370918,73.294701 78.053139,72.182091 77.735352,71.069481 
	C77.559677,70.545471 77.384010,70.021469 77.430328,69.022797 
	C77.768501,68.034737 77.884689,67.521332 78.351791,66.960251 
	C81.138931,66.266235 83.575142,65.619896 86.247589,64.985352 
	C86.797737,65.018997 87.111938,65.035316 87.426437,65.046104 
	C87.551834,65.488625 87.677231,65.931152 87.567398,66.975632 
	C87.657928,68.692375 87.983688,69.807167 88.309456,70.921959 
	C88.484100,71.445457 88.658745,71.968956 88.790268,72.772362 
z"/>
<path fill="#3996A1" opacity="1.000000" stroke="none" 
	d="
M86.011353,64.973557 
	C83.575142,65.619896 81.138931,66.266235 78.227631,66.741928 
	C77.482841,66.379303 77.213142,66.187332 76.943443,65.995361 
	C76.616440,64.253632 76.289436,62.511906 76.323250,60.445755 
	C77.313164,61.167610 77.942261,62.213882 78.498985,63.139790 
	C83.389076,58.378845 84.750259,53.529469 83.992722,48.007801 
	C83.992722,48.007801 84.342224,48.004982 84.516846,48.003998 
	C85.204689,51.227783 85.717911,54.452557 86.150536,58.553230 
	C86.050407,61.277271 86.030884,63.125412 86.011353,64.973557 
z"/>
<path fill="#449D91" opacity="1.000000" stroke="none" 
	d="
M86.247589,64.985352 
	C86.030884,63.125412 86.050407,61.277271 86.100746,58.953896 
	C86.609779,60.424980 87.088005,62.371296 87.496338,64.681854 
	C87.111938,65.035316 86.797737,65.018997 86.247589,64.985352 
z"/>
<path fill="#449D91" opacity="1.000000" stroke="none" 
	d="
M88.308296,70.529861 
	C87.983688,69.807167 87.657928,68.692375 87.537140,67.322525 
	C87.930450,68.090897 88.118790,69.114326 88.308296,70.529861 
z"/>
<path fill="#37949B" opacity="1.000000" stroke="none" 
	d="
M100.647964,38.984138 
	C100.729271,39.970196 100.577911,41.263084 100.124802,42.810379 
	C100.020470,41.806850 100.217880,40.548908 100.647964,38.984138 
z"/>
<path fill="#37949B" opacity="1.000000" stroke="none" 
	d="
M101.643143,35.115120 
	C101.759483,35.765472 101.636734,36.653782 101.259117,37.769493 
	C101.137520,37.115616 101.270790,36.234344 101.643143,35.115120 
z"/>
<path fill="#37949B" opacity="1.000000" stroke="none" 
	d="
M103.582260,28.811581 
	C103.691711,29.539938 103.536087,30.528524 103.049362,31.714991 
	C102.917900,30.965851 103.117538,30.018831 103.582260,28.811581 
z"/>
<path fill="#3B9A8B" opacity="1.000000" stroke="none" 
	d="
M95.612427,61.779999 
	C95.727180,62.509083 95.586746,63.528976 95.151306,64.804794 
	C95.023277,64.064087 95.190254,63.067448 95.612427,61.779999 
z"/>
<path fill="#37949B" opacity="1.000000" stroke="none" 
	d="
M102.992050,34.594353 
	C102.795975,34.975739 102.599884,34.962650 102.111145,34.907753 
	C101.981216,34.002220 102.143929,33.138493 102.556274,32.054543 
	C102.867950,32.622837 102.929993,33.411362 102.992050,34.594353 
z"/>
<path fill="#2D919D" opacity="1.000000" stroke="none" 
	d="
M118.725967,35.262657 
	C118.858490,35.214371 118.917511,35.578491 118.902344,35.761501 
	C118.547882,35.816437 118.449974,35.605247 118.725967,35.262657 
z"/>
<path fill="#2F93B1" opacity="1.000000" stroke="none" 
	d="
M54.426552,69.309189 
	C54.698910,66.303612 55.217144,63.507233 56.141544,60.081642 
	C56.656986,58.170746 56.766266,56.889065 56.875542,55.607380 
	C56.875538,55.607380 56.762829,55.299652 57.217476,55.142326 
	C58.902184,54.586254 60.218182,54.351711 61.347588,53.760635 
	C66.526779,51.050064 66.743347,51.153709 67.065155,57.168449 
	C66.717712,58.226116 66.370270,59.283783 65.995491,60.683876 
	C65.307777,63.415302 64.647392,65.804306 63.975578,68.595291 
	C62.506374,68.498734 61.048595,68.000183 59.644638,67.520042 
	C57.574272,67.218063 58.326046,73.637886 54.426552,69.309189 
z"/>
<path fill="#358FB6" opacity="1.000000" stroke="none" 
	d="
M67.271439,56.827717 
	C66.743347,51.153709 66.526779,51.050064 61.347588,53.760635 
	C60.218182,54.351711 58.902184,54.586254 57.281677,54.991570 
	C57.573223,50.925602 58.255219,46.853073 59.056412,42.393330 
	C62.667595,41.787441 66.565933,44.774334 69.793999,40.859550 
	C69.172745,46.182552 68.325226,51.334770 67.271439,56.827717 
z"/>
<path fill="#3090A7" opacity="1.000000" stroke="none" 
	d="
M83.769226,47.754692 
	C84.750259,53.529469 83.389076,58.378845 78.498985,63.139790 
	C77.942261,62.213882 77.313164,61.167610 76.360016,60.059597 
	C75.446167,57.254688 74.856361,54.511520 74.295319,51.389000 
	C77.397957,49.840294 80.471840,48.670940 83.769226,47.754692 
z"/>
<path fill="#449D91" opacity="1.000000" stroke="none" 
	d="
M77.723740,71.462204 
	C78.053139,72.182091 78.370918,73.294701 78.493073,74.664948 
	C78.102341,73.900032 77.907227,72.877480 77.723740,71.462204 
z"/>
<path fill="#449D91" opacity="1.000000" stroke="none" 
	d="
M76.904251,66.368416 
	C77.213142,66.187332 77.482841,66.379303 77.876709,66.789612 
	C77.884689,67.521332 77.768501,68.034737 77.470169,68.741524 
	C77.147041,68.203766 77.006050,67.472618 76.904251,66.368416 
z"/>
<path fill="#358FB6" opacity="1.000000" stroke="none" 
	d="
M56.661232,55.927071 
	C56.766266,56.889065 56.656986,58.170746 56.280075,59.722832 
	C56.157265,58.744408 56.302094,57.495583 56.661232,55.927071 
z"/>
</svg>